<svg xmlns="http://www.w3.org/2000/svg" xmlns:xlink="http://www.w3.org/1999/xlink" width="21" height="18" viewBox="0 0 21 18">
  <defs>
    <clipPath id="clip-year">
      <rect width="21" height="18"/>
    </clipPath>
  </defs>
  <g id="year" clip-path="url(#clip-year)">
    <g id="calendar" transform="translate(1.21 -24.262)">
      <path id="Path_17617" data-name="Path 17617" d="M18.022,30.069V27.992a1.586,1.586,0,0,0-1.584-1.584h-.211v1.936a.528.528,0,0,1-1.056,0V25.528a.528.528,0,0,0-1.056,0v.88H10.6v1.936a.528.528,0,0,1-1.056,0V25.528a.528.528,0,0,0-1.056,0v.88H4.963v1.936a.528.528,0,0,1-1.056,0V25.528a.528.528,0,0,0-1.056,0v.88H1.584A1.586,1.586,0,0,0,0,27.992v2.077Z" transform="translate(0)" fill="#8b67b3"/>
      <path id="Path_17618" data-name="Path 17618" d="M0,199v8.554a1.586,1.586,0,0,0,1.584,1.584H16.438a1.586,1.586,0,0,0,1.584-1.584V199Zm5.069,7.322H3.942a.528.528,0,1,1,0-1.056H5.069a.528.528,0,1,1,0,1.056Zm0-2.253H3.942a.528.528,0,1,1,0-1.056H5.069a.528.528,0,1,1,0,1.056Zm0-2.253H3.942a.528.528,0,1,1,0-1.056H5.069a.528.528,0,1,1,0,1.056Zm4.506,4.506H8.448a.528.528,0,1,1,0-1.056H9.574a.528.528,0,1,1,0,1.056Zm0-2.253H8.448a.528.528,0,1,1,0-1.056H9.574a.528.528,0,1,1,0,1.056Zm0-2.253H8.448a.528.528,0,1,1,0-1.056H9.574a.528.528,0,1,1,0,1.056Zm4.506,4.506H12.953a.528.528,0,1,1,0-1.056H14.08a.528.528,0,1,1,0,1.056Zm0-2.253H12.953a.528.528,0,1,1,0-1.056H14.08a.528.528,0,1,1,0,1.056Zm0-2.253H12.953a.528.528,0,1,1,0-1.056H14.08a.528.528,0,1,1,0,1.056Z" transform="translate(0 -167.875)" fill="#8b67b3"/>
    </g>
  </g>
</svg>
