<svg xmlns="http://www.w3.org/2000/svg" width="38.344" height="31.961" viewBox="0 0 38.344 31.961">
  <path id="Total_Students" data-name="Total Students" d="M13.533,15.981a7.451,7.451,0,0,0,2.994-.624,7.674,7.674,0,0,0,2.44-1.7,7.958,7.958,0,0,0,1.643-2.521,8.228,8.228,0,0,0,0-6.178,8.016,8.016,0,0,0-1.643-2.53A7.731,7.731,0,0,0,16.526.712,7.5,7.5,0,0,0,10.533.682a7.671,7.671,0,0,0-2.454,1.7A7.956,7.956,0,0,0,6.423,4.9a8.227,8.227,0,0,0,0,6.207,8.014,8.014,0,0,0,1.657,2.536,7.728,7.728,0,0,0,2.454,1.708A7.473,7.473,0,0,0,13.533,15.981Zm5.379,1.985h-1a10.392,10.392,0,0,1-1.026.423,10.218,10.218,0,0,1-1.076.313,10.113,10.113,0,0,1-4.553,0,10.3,10.3,0,0,1-1.08-.311,10.614,10.614,0,0,1-1.034-.423H8.134a7.886,7.886,0,0,0-3.16.661,8.158,8.158,0,0,0-2.586,1.8A8.442,8.442,0,0,0,.641,23.1,8.579,8.579,0,0,0,0,26.368v2.6A3.051,3.051,0,0,0,.229,30.13a2.988,2.988,0,0,0,.624.949,2.893,2.893,0,0,0,.925.637,2.818,2.818,0,0,0,1.132.229l21.17-.113a2.776,2.776,0,0,0,1.115-.24,2.887,2.887,0,0,0,.91-.641,3,3,0,0,0,.613-.947,3.063,3.063,0,0,0,.225-1.157V26.275a8.543,8.543,0,0,0-.63-3.234A8.338,8.338,0,0,0,24.6,20.4a8.025,8.025,0,0,0-2.553-1.781A7.775,7.775,0,0,0,18.912,17.966Zm19.231-7.926L36.5,8.3a.7.7,0,0,0-.231-.164A.675.675,0,0,0,36,8.084a.682.682,0,0,0-.265.052.709.709,0,0,0-.235.159l-6.224,6.413-2.71-2.835a.7.7,0,0,0-.233-.164.681.681,0,0,0-.266-.056.689.689,0,0,0-.267.052.715.715,0,0,0-.236.16L23.889,13.59a.728.728,0,0,0-.158.242.753.753,0,0,0-.053.276.764.764,0,0,0,.051.277.749.749,0,0,0,.154.245l4.872,5.091a.7.7,0,0,0,.232.163.678.678,0,0,0,.265.055.688.688,0,0,0,.266-.053.716.716,0,0,0,.236-.16l8.382-8.651a.758.758,0,0,0,.154-.244.775.775,0,0,0,.053-.276.755.755,0,0,0-.049-.275.716.716,0,0,0-.152-.241Z" fill="#a2d6ff"/>
</svg>
